<svg width="400" height="400" viewBox="0 0 400 400" fill="none" xmlns="http://www.w3.org/2000/svg">
<path fill-rule="evenodd" clip-rule="evenodd" d="M313.903 0C144.844 95.0917 59.3414 144.011 56.6351 147.383L53.0385 151.52V167.174V182.828L60.0138 195.686C63.8285 202.73 67.4252 208.433 67.8611 208.321C68.7138 208.146 263.357 65.2109 351.751 0H359.701C381.792 0 399.701 17.9086 399.701 40V360C399.701 382.091 381.792 400 359.701 400H292.608C294.67 392.691 296.581 385.271 298.267 377.943L300.773 367.32L295.651 278.987C292.926 230.348 290.528 189.648 290.31 188.418C290.201 187.3 288.893 189.984 287.477 194.568C284.643 203.848 277.885 218.384 273.09 225.54L269.929 230.237V275.968V321.812L262.845 341.827L255.651 361.73L254.978 400H243.304L243.335 398.603L243.989 372.215L241.374 371.544C240.066 371.097 231.129 370.761 221.755 370.761H204.535V400H193.636V357.592L202.355 335.901L211.074 314.209L210.856 280.105L210.529 246.002L199.63 254.165C193.527 258.525 184.59 264.675 179.685 267.806L170.748 273.397V297.548V321.812L152.22 355.021L133.691 388.229V400H121.702V385.434L125.735 378.054C127.915 374.029 130.421 369.557 131.293 368.103C132.165 366.761 132.383 365.643 131.947 365.755C131.402 365.755 122.247 373.135 111.566 382.08L92.0569 398.293L92.1266 400H80.4268C80.3547 399.273 80.2716 398.837 80.177 398.74C79.4397 397.984 23.2861 383.634 4.65065 379.29C2.25275 374.942 0.640292 370.1 0.00457969 364.956L43.0114 376.042L86.3896 387.335L117.997 361.171C148.187 336.124 149.931 334.559 154.182 326.844L158.759 318.793V299.673V280.553L153.092 283.684C152.826 283.83 152.572 283.968 152.331 284.099C150.703 284.986 149.598 285.588 148.752 286.445C146.963 288.259 146.333 291.217 144.371 300.431L144.371 300.431L144.2 301.234L144.065 301.868L143.936 302.468L142.084 311.413L125.408 328.409L108.733 345.517H79.0872H49.4419L40.2867 338.696L31.1315 331.875L15.4369 333.888C7.86995 334.893 3.78344 335.396 -0.299438 335.397V323.05C5.08584 323.064 10.4052 322.532 17.3987 321.477C61.3218 314.768 115.381 293.411 164.536 263.222C176.525 255.954 178.268 254.5 177.07 253.047C176.307 252.04 169.222 246.897 161.266 241.53C145.353 230.684 122.247 218.608 103.61 211.34L91.4031 206.644L81.485 213.688L71.6759 220.844V233.144V245.443L37.6709 279.77C5.60552 312.111 3.36519 314.185 -0.299438 314.209V255.436L24.701 229.23C38.4338 214.806 49.7688 202.619 49.7688 202.171C49.7688 201.836 47.807 198.034 45.4092 193.674L41.0496 185.958V166.95V147.942L44.8642 142.686L48.7879 137.543L46.6081 132.511L44.4283 127.48H-0.299438V115.378C0.798694 115.386 1.90293 115.394 3.01187 115.404C5.46135 115.419 7.79229 115.433 10.0107 115.446L10.0213 115.446C44.4046 115.649 51.7457 115.692 54.3735 119.233C55.0869 120.194 55.4529 121.413 55.9183 122.963C56.039 123.365 56.1663 123.789 56.3082 124.237C57.1801 126.697 58.161 128.933 58.597 129.157C59.0329 129.492 90.4221 112.161 128.351 90.8048C155.99 75.2055 181.327 60.9641 194.327 53.6569L194.333 53.6536L194.337 53.6513L194.339 53.6504C199.223 50.9049 202.364 49.1397 203.227 48.651C206.279 46.9738 208.895 45.1848 208.895 44.7375C208.895 44.2903 204.535 37.1342 199.194 28.9718C192.465 18.5876 185.289 8.91672 177.703 0H313.903ZM89.5237 0L87.9153 45.5202L79.0871 66.653C74.1826 78.2817 69.387 88.6804 68.4061 89.9103C66.3353 92.3702 42.7934 110.819 39.1967 112.72C37.57 113.722 25.9078 114.059 -0.299438 114.062V101.762H-0.148867H34.619L47.3709 91.811L60.1228 81.8596L68.0791 62.404L75.9264 42.8366L77.5593 0H89.5237ZM25.246 84.9905H-0.299438V97.2899H-0.257857H28.8426L34.2921 93.041C49.2238 81.5241 57.398 74.1444 58.052 71.6845C58.4879 70.2309 57.943 48.0918 56.9621 22.4864C56.6587 14.5687 56.3763 6.89694 56.1308 0H44.2462L44.9732 18.9085L46.7171 67.1003L43.1204 70.1192C41.1586 71.9083 36.363 75.9336 32.4393 79.0643L25.246 84.9905ZM231.455 104.781C231.347 104.334 236.142 100.197 242.137 95.6128C248.131 91.1402 253.581 87.3385 254.125 87.3385C255.433 87.2267 264.807 100.756 270.801 111.379C287.259 140.562 285.515 178.579 266.441 213.241L261.864 221.403H245.733C236.905 221.403 229.603 221.292 229.603 221.068C229.603 220.844 230.584 216.26 231.891 210.669C235.161 196.022 235.924 156.999 233.417 127.48C232.436 115.516 231.564 105.341 231.455 104.781ZM206.279 122.224C210.312 119.205 214.562 115.963 215.87 114.957C219.031 112.273 219.576 112.497 220.23 116.522C224.48 144.923 224.48 190.207 220.339 208.88C216.96 223.863 214.889 226.77 198.323 239.964L189.494 247.12L179.903 239.741C161.702 225.876 134.345 210.557 112.22 201.724C107.861 200.047 104.264 198.258 104.264 197.811C104.264 197.14 141.43 169.41 146.334 166.279C147.315 165.72 148.514 167.285 150.367 171.311C155.381 182.604 162.574 188.865 174.018 191.884C195.162 197.363 215.652 180.368 215.543 157.334C215.543 150.513 214.998 148.277 211.946 142.015C209.549 137.319 206.715 133.629 203.663 131.17L198.977 127.591L206.279 122.224ZM164.315 152.897L164.314 152.898C162.909 153.932 161.9 154.675 161.484 154.986C156.361 158.788 161.702 172.205 170.53 177.46C186.879 187.3 207.042 172.764 203.554 153.532C202.028 145.37 194.181 136.313 188.622 136.425C187.532 136.537 181.429 140.338 175.108 144.923C170.983 147.986 166.952 150.955 164.315 152.897ZM5.51868 269.148C5.19171 268.141 13.8019 258.19 30.3685 240.523C44.3192 225.764 55.8722 213.576 55.9812 213.576C56.0902 213.576 56.9621 215.03 57.943 216.931C59.0329 219.055 59.5779 223.416 59.5779 230.013V239.853L32.8753 267.247L6.17262 294.641V282.677C6.17262 276.192 5.84565 270.042 5.51868 269.148ZM221.974 272.949C221.974 252.152 222.3 234.821 222.736 234.485C223.063 234.038 231.238 233.703 240.72 233.703H257.94V274.068V314.432L254.998 313.762C253.254 313.538 248.022 312.979 243.227 312.532C238.431 312.196 231.674 311.637 228.295 311.302L221.974 310.631V272.949ZM214.126 338.808L208.023 354.462L222.083 354.685L224.417 354.719C231.441 354.819 238.464 354.92 240.72 355.021H245.298L250.529 340.485C253.363 332.546 255.543 325.949 255.434 325.837C255.216 325.614 223.935 323.154 221.756 323.154C220.775 323.154 217.941 328.968 214.126 338.808Z" fill="#FCAE1E"/>
</svg>
