<svg width="464" height="296" viewBox="0 0 464 296" fill="none" xmlns="http://www.w3.org/2000/svg">
<g clip-path="url(#clip0_32_593)">
<path fill-rule="evenodd" clip-rule="evenodd" d="M277.561 0C209.938 38.0367 175.737 57.6045 174.654 58.9531L173.215 60.6079V66.8695V73.1311L176.006 78.2745C177.531 81.0922 178.97 83.3732 179.144 83.3285C179.486 83.2585 257.343 26.0844 292.701 0H295.88C304.717 0 311.88 7.16344 311.88 16V144C311.88 152.837 304.717 160 295.88 160H269.043C269.868 157.076 270.632 154.108 271.307 151.177L272.309 146.928L270.26 111.595C269.17 92.1394 268.211 75.8593 268.124 75.3673C268.081 74.9201 267.557 75.9935 266.991 77.8272C265.857 81.5394 263.154 87.3537 261.236 90.2162L259.972 92.0947V110.387V128.725L257.138 136.731L254.261 144.692L253.991 160H249.322L249.334 159.441L249.596 148.886L248.549 148.618C248.026 148.439 244.451 148.305 240.702 148.305H233.814V160H229.454V143.037L232.942 134.36L236.43 125.684L236.343 112.042L236.212 98.4009L231.852 101.666C229.411 103.41 225.836 105.87 223.874 107.122L220.299 109.359V119.019V128.725L212.888 142.008L205.477 155.292V160H200.681V154.174L202.294 151.222C203.166 149.612 204.169 147.823 204.517 147.241C204.866 146.705 204.953 146.257 204.779 146.302C204.561 146.302 200.899 149.254 196.626 152.832L188.823 159.317L188.851 160H184.171C184.142 159.709 184.109 159.535 184.071 159.496C183.776 159.193 161.315 153.454 153.86 151.716C152.901 149.977 152.256 148.04 152.002 145.982L169.205 150.417L186.556 154.934L199.199 144.468C211.275 134.45 211.972 133.824 213.673 130.738L215.504 127.517V119.869V112.221L213.237 113.473L213.153 113.519L213.06 113.57L213.015 113.595L212.932 113.64L212.932 113.64L212.932 113.64C212.281 113.994 211.839 114.235 211.501 114.578C210.785 115.304 210.533 116.487 209.748 120.172C209.693 120.431 209.635 120.703 209.575 120.987L208.833 124.565L202.163 131.364L195.493 138.207H183.635H171.777L168.115 135.478L164.453 132.75L158.175 133.555C155.148 133.957 153.513 134.159 151.88 134.159V129.22C154.034 129.226 156.162 129.013 158.959 128.591C176.529 125.907 198.152 117.365 217.814 105.289C222.61 102.382 223.307 101.8 222.828 101.219C222.523 100.816 219.689 98.7588 216.506 96.612C210.141 92.2736 200.899 87.4432 193.444 84.5361L188.561 82.6576L184.594 85.4753L180.67 88.3377V93.2575V98.1773L167.068 111.908C154.242 124.844 153.346 125.674 151.88 125.683V102.174L161.88 91.6922C167.374 85.9226 171.908 81.0475 171.908 80.8686C171.908 80.7344 171.123 79.2137 170.164 77.4694L168.42 74.3834V66.78V59.1767L169.946 57.0746L171.515 55.0172L170.643 53.0046L169.771 50.9919H151.88V46.1512C152.319 46.1543 152.761 46.1578 153.205 46.1616C154.186 46.1677 155.12 46.1732 156.009 46.1785C169.762 46.2595 172.698 46.2768 173.749 47.6933C174.035 48.0778 174.181 48.5654 174.367 49.1854L174.367 49.1856C174.416 49.3463 174.467 49.5159 174.523 49.6949C174.872 50.6789 175.264 51.5734 175.439 51.6628C175.613 51.797 188.169 44.8645 203.34 36.322C214.4 30.0802 224.538 24.3818 229.736 21.4599L229.742 21.4564L229.744 21.4551C231.693 20.3598 232.946 19.6556 233.291 19.4604C234.512 18.7896 235.558 18.0739 235.558 17.895C235.558 17.7161 233.814 14.8537 231.678 11.5887C228.986 7.43506 226.115 3.5667 223.081 0H277.561ZM187.809 0L187.166 18.2081L183.635 26.6612C181.673 31.3127 179.755 35.4722 179.362 35.9642C178.534 36.9481 169.117 44.3278 167.679 45.0882C167.028 45.4887 162.363 45.6235 151.88 45.6249V40.705H151.94H165.848L170.948 36.7244L176.049 32.7439L179.232 24.9616L182.371 17.1347L183.024 0H187.809ZM162.098 33.9962H151.88V38.916H151.897H163.537L165.717 37.2164C171.69 32.6097 174.959 29.6578 175.221 28.6738C175.395 28.0924 175.177 19.2368 174.785 8.99462C174.664 5.82752 174.551 2.75879 174.452 0H169.698L169.989 7.56343L170.687 26.8401L169.248 28.0477C168.463 28.7633 166.545 30.3734 164.976 31.6258L162.098 33.9962ZM244.582 41.9126C244.539 41.7337 246.457 40.0789 248.855 38.2451C251.252 36.4561 253.432 34.9354 253.65 34.9354C254.173 34.8907 257.923 40.3025 260.32 44.5514C266.903 56.2248 266.206 71.4315 258.577 85.2964L256.746 88.5614H250.293C246.762 88.5614 243.841 88.5166 243.841 88.4272C243.841 88.3377 244.233 86.504 244.757 84.2677C246.064 78.4087 246.37 62.7994 245.367 50.9919C244.975 46.2063 244.626 42.1362 244.582 41.9126ZM234.512 48.8898C236.125 47.6822 237.825 46.3852 238.348 45.9826C239.612 44.9092 239.83 44.9987 240.092 46.6088C241.792 57.9691 241.792 76.0829 240.135 83.5521C238.784 89.5453 237.956 90.7082 231.329 95.9858L227.798 98.8482L223.961 95.8963C216.681 90.3504 205.738 84.223 196.888 80.6897C195.144 80.0188 193.706 79.3032 193.706 79.1243C193.706 78.8559 208.572 67.764 210.534 66.5117C210.926 66.288 211.406 66.9142 212.147 68.5243C214.152 73.0416 217.03 75.5462 221.607 76.7538C230.065 78.9454 238.261 72.1471 238.217 62.9336C238.217 60.2054 237.999 59.3108 236.779 56.8062C235.819 54.9277 234.686 53.4518 233.465 52.4678L231.591 51.0366L234.512 48.8898ZM217.724 61.16L217.724 61.1601L217.72 61.1632L217.71 61.1709L217.709 61.1715C217.156 61.5788 216.759 61.8713 216.594 61.9944C214.544 63.515 216.681 68.8821 220.212 70.9842C226.751 74.9201 234.817 69.1057 233.422 61.4129C232.811 58.148 229.672 54.5252 227.449 54.5699C227.013 54.6147 224.572 56.1353 222.043 57.9691C220.393 59.1952 218.779 60.3832 217.724 61.16ZM154.207 107.659C154.077 107.257 157.521 103.276 164.147 96.2094C169.728 90.3057 174.349 85.4306 174.392 85.4306C174.436 85.4306 174.785 86.012 175.177 86.7723C175.613 87.6221 175.831 89.3664 175.831 92.0052V95.9411L165.15 106.899L154.469 117.857V113.071C154.469 110.477 154.338 108.017 154.207 107.659ZM240.789 109.18C240.789 100.861 240.92 93.9284 241.095 93.7942C241.225 93.6153 244.495 93.4811 248.288 93.4811H255.176V109.627V125.773L253.999 125.505C253.301 125.415 251.209 125.192 249.291 125.013C247.372 124.878 244.669 124.655 243.318 124.521L240.789 124.252V109.18ZM237.651 135.523L235.209 141.785L240.833 141.874L241.767 141.888C244.576 141.928 247.386 141.968 248.288 142.008H250.119L252.212 136.194C253.345 133.018 254.217 130.38 254.173 130.335C254.086 130.246 241.574 129.262 240.702 129.262C240.31 129.262 239.176 131.587 237.651 135.523Z" fill="#ED2939"/>
</g>
<path d="M41.3733 237H13.4433V187.02H41.3733V192.55H19.7433V208.16H40.1133V213.62H19.7433V231.47H41.3733V237ZM65.7098 198.85C70.2831 198.85 73.6665 199.853 75.8598 201.86C78.0531 203.867 79.1498 207.063 79.1498 211.45V237H74.6698L73.4798 231.68H73.1998C72.1265 233.033 71.0065 234.177 69.8398 235.11C68.7198 235.997 67.4131 236.65 65.9198 237.07C64.4731 237.49 62.6998 237.7 60.5998 237.7C58.3598 237.7 56.3298 237.303 54.5098 236.51C52.7365 235.717 51.3365 234.503 50.3098 232.87C49.2831 231.19 48.7698 229.09 48.7698 226.57C48.7698 222.837 50.2398 219.967 53.1798 217.96C56.1198 215.907 60.6465 214.787 66.7598 214.6L73.1298 214.39V212.15C73.1298 209.023 72.4531 206.853 71.0998 205.64C69.7465 204.427 67.8331 203.82 65.3598 203.82C63.3998 203.82 61.5331 204.123 59.7598 204.73C57.9865 205.29 56.3298 205.943 54.7898 206.69L52.8998 202.07C54.5331 201.183 56.4698 200.437 58.7098 199.83C60.9498 199.177 63.2831 198.85 65.7098 198.85ZM67.5298 218.87C62.8631 219.057 59.6198 219.803 57.7998 221.11C56.0265 222.417 55.1398 224.26 55.1398 226.64C55.1398 228.74 55.7698 230.28 57.0298 231.26C58.3365 232.24 59.9931 232.73 61.9998 232.73C65.1731 232.73 67.8098 231.867 69.9098 230.14C72.0098 228.367 73.0598 225.66 73.0598 222.02V218.66L67.5298 218.87ZM115.168 226.64C115.168 229.067 114.561 231.097 113.348 232.73C112.135 234.363 110.408 235.6 108.168 236.44C105.928 237.28 103.268 237.7 100.188 237.7C97.5748 237.7 95.3114 237.49 93.3981 237.07C91.5314 236.65 89.8748 236.067 88.4281 235.32V229.72C89.9214 230.467 91.7181 231.167 93.8181 231.82C95.9648 232.427 98.1348 232.73 100.328 232.73C103.455 232.73 105.718 232.24 107.118 231.26C108.518 230.233 109.218 228.88 109.218 227.2C109.218 226.267 108.961 225.427 108.448 224.68C107.935 223.933 107.001 223.187 105.648 222.44C104.341 221.693 102.451 220.853 99.9781 219.92C97.5514 218.987 95.4748 218.053 93.7481 217.12C92.0214 216.187 90.6914 215.067 89.7581 213.76C88.8248 212.453 88.3581 210.773 88.3581 208.72C88.3581 205.547 89.6414 203.097 92.2081 201.37C94.8214 199.643 98.2281 198.78 102.428 198.78C104.715 198.78 106.838 199.013 108.798 199.48C110.805 199.9 112.671 200.507 114.398 201.3L112.298 206.2C111.271 205.733 110.175 205.337 109.008 205.01C107.888 204.637 106.745 204.357 105.578 204.17C104.411 203.937 103.221 203.82 102.008 203.82C99.4881 203.82 97.5514 204.24 96.1981 205.08C94.8914 205.873 94.2381 206.97 94.2381 208.37C94.2381 209.397 94.5414 210.283 95.1481 211.03C95.7548 211.73 96.7581 212.43 98.1581 213.13C99.6048 213.783 101.518 214.577 103.898 215.51C106.278 216.397 108.308 217.307 109.988 218.24C111.668 219.173 112.951 220.317 113.838 221.67C114.725 222.977 115.168 224.633 115.168 226.64ZM118.354 199.48H124.934L133.054 220.83C133.521 222.09 133.941 223.303 134.314 224.47C134.734 225.637 135.108 226.78 135.434 227.9C135.761 228.973 136.018 230.023 136.204 231.05H136.484C136.764 229.883 137.208 228.367 137.814 226.5C138.421 224.587 139.051 222.673 139.704 220.76L147.334 199.48H153.984L137.814 242.18C136.928 244.513 135.878 246.543 134.664 248.27C133.498 250.043 132.051 251.397 130.324 252.33C128.644 253.31 126.591 253.8 124.164 253.8C123.044 253.8 122.064 253.73 121.224 253.59C120.384 253.497 119.661 253.38 119.054 253.24V248.34C119.568 248.433 120.174 248.527 120.874 248.62C121.621 248.713 122.391 248.76 123.184 248.76C124.631 248.76 125.868 248.48 126.894 247.92C127.968 247.407 128.878 246.637 129.624 245.61C130.371 244.63 131.001 243.463 131.514 242.11L133.474 237.14L118.354 199.48ZM200.641 210.61H217.931V235.11C215.225 235.997 212.495 236.65 209.741 237.07C206.988 237.49 203.861 237.7 200.361 237.7C195.181 237.7 190.818 236.673 187.271 234.62C183.725 232.52 181.018 229.557 179.151 225.73C177.331 221.857 176.421 217.283 176.421 212.01C176.421 206.783 177.448 202.257 179.501 198.43C181.555 194.603 184.495 191.64 188.321 189.54C192.195 187.393 196.861 186.32 202.321 186.32C205.121 186.32 207.758 186.577 210.231 187.09C212.751 187.603 215.085 188.327 217.231 189.26L214.851 194.72C213.078 193.927 211.071 193.25 208.831 192.69C206.638 192.13 204.351 191.85 201.971 191.85C198.005 191.85 194.598 192.667 191.751 194.3C188.905 195.933 186.735 198.267 185.241 201.3C183.748 204.287 183.001 207.857 183.001 212.01C183.001 215.977 183.631 219.5 184.891 222.58C186.198 225.613 188.228 227.993 190.981 229.72C193.735 231.4 197.351 232.24 201.831 232.24C203.325 232.24 204.631 232.193 205.751 232.1C206.918 231.96 207.968 231.797 208.901 231.61C209.881 231.423 210.791 231.237 211.631 231.05V216.21H200.641V210.61ZM260.389 199.48V237H255.349L254.439 232.03H254.159C253.366 233.337 252.339 234.41 251.079 235.25C249.819 236.09 248.442 236.697 246.949 237.07C245.456 237.49 243.892 237.7 242.259 237.7C239.272 237.7 236.752 237.233 234.699 236.3C232.692 235.32 231.176 233.827 230.149 231.82C229.122 229.813 228.609 227.223 228.609 224.05V199.48H234.839V223.63C234.839 226.617 235.516 228.857 236.869 230.35C238.222 231.843 240.322 232.59 243.169 232.59C245.969 232.59 248.162 232.077 249.749 231.05C251.382 229.977 252.526 228.437 253.179 226.43C253.879 224.377 254.229 221.903 254.229 219.01V199.48H260.389ZM290.361 198.78C294.841 198.78 298.224 199.877 300.511 202.07C302.797 204.217 303.941 207.717 303.941 212.57V237H297.851V212.99C297.851 209.957 297.174 207.693 295.821 206.2C294.467 204.707 292.344 203.96 289.451 203.96C285.297 203.96 282.427 205.127 280.841 207.46C279.254 209.793 278.461 213.153 278.461 217.54V237H272.301V199.48H277.271L278.181 204.59H278.531C279.371 203.283 280.397 202.21 281.611 201.37C282.871 200.483 284.247 199.83 285.741 199.41C287.234 198.99 288.774 198.78 290.361 198.78ZM328.872 237.7C324.205 237.7 320.472 236.09 317.672 232.87C314.872 229.603 313.472 224.75 313.472 218.31C313.472 211.87 314.872 207.017 317.672 203.75C320.519 200.437 324.275 198.78 328.942 198.78C330.902 198.78 332.605 199.037 334.052 199.55C335.499 200.017 336.759 200.67 337.832 201.51C338.905 202.35 339.815 203.283 340.562 204.31H340.982C340.935 203.703 340.842 202.817 340.702 201.65C340.609 200.437 340.562 199.48 340.562 198.78V183.8H346.722V237H341.752L340.842 231.96H340.562C339.815 233.033 338.905 234.013 337.832 234.9C336.759 235.74 335.475 236.417 333.982 236.93C332.535 237.443 330.832 237.7 328.872 237.7ZM329.852 232.59C333.819 232.59 336.595 231.517 338.182 229.37C339.815 227.177 340.632 223.887 340.632 219.5V218.38C340.632 213.713 339.862 210.143 338.322 207.67C336.782 205.15 333.935 203.89 329.782 203.89C326.469 203.89 323.972 205.22 322.292 207.88C320.659 210.493 319.842 214.017 319.842 218.45C319.842 222.93 320.659 226.407 322.292 228.88C323.972 231.353 326.492 232.59 329.852 232.59ZM372.848 198.85C377.422 198.85 380.805 199.853 382.998 201.86C385.192 203.867 386.288 207.063 386.288 211.45V237H381.808L380.618 231.68H380.338C379.265 233.033 378.145 234.177 376.978 235.11C375.858 235.997 374.552 236.65 373.058 237.07C371.612 237.49 369.838 237.7 367.738 237.7C365.498 237.7 363.468 237.303 361.648 236.51C359.875 235.717 358.475 234.503 357.448 232.87C356.422 231.19 355.908 229.09 355.908 226.57C355.908 222.837 357.378 219.967 360.318 217.96C363.258 215.907 367.785 214.787 373.898 214.6L380.268 214.39V212.15C380.268 209.023 379.592 206.853 378.238 205.64C376.885 204.427 374.972 203.82 372.498 203.82C370.538 203.82 368.672 204.123 366.898 204.73C365.125 205.29 363.468 205.943 361.928 206.69L360.038 202.07C361.672 201.183 363.608 200.437 365.848 199.83C368.088 199.177 370.422 198.85 372.848 198.85ZM374.668 218.87C370.002 219.057 366.758 219.803 364.938 221.11C363.165 222.417 362.278 224.26 362.278 226.64C362.278 228.74 362.908 230.28 364.168 231.26C365.475 232.24 367.132 232.73 369.138 232.73C372.312 232.73 374.948 231.867 377.048 230.14C379.148 228.367 380.198 225.66 380.198 222.02V218.66L374.668 218.87ZM439.037 198.78C443.283 198.78 446.457 199.877 448.557 202.07C450.657 204.217 451.707 207.717 451.707 212.57V237H445.617V212.85C445.617 209.91 444.987 207.693 443.727 206.2C442.513 204.707 440.6 203.96 437.987 203.96C434.347 203.96 431.733 205.01 430.147 207.11C428.607 209.21 427.837 212.267 427.837 216.28V237H421.747V212.85C421.747 210.89 421.467 209.257 420.907 207.95C420.347 206.597 419.507 205.593 418.387 204.94C417.267 204.287 415.82 203.96 414.047 203.96C411.527 203.96 409.543 204.497 408.097 205.57C406.65 206.597 405.6 208.113 404.947 210.12C404.34 212.127 404.037 214.6 404.037 217.54V237H397.877V199.48H402.847L403.757 204.59H404.107C404.9 203.283 405.857 202.21 406.977 201.37C408.143 200.483 409.427 199.83 410.827 199.41C412.227 198.99 413.673 198.78 415.167 198.78C418.06 198.78 420.463 199.293 422.377 200.32C424.337 201.347 425.76 202.933 426.647 205.08H426.997C428.257 202.933 429.96 201.347 432.107 200.32C434.3 199.293 436.61 198.78 439.037 198.78Z" fill="black"/>
<path d="M4.70813 286V257.44H8.30813V282.8H20.7881V286H4.70813ZM33.4847 264.16C35.3247 264.16 36.898 264.56 38.2047 265.36C39.538 266.16 40.5514 267.293 41.2447 268.76C41.9647 270.2 42.3247 271.893 42.3247 273.84V275.96H27.6447C27.698 278.387 28.3114 280.24 29.4847 281.52C30.6847 282.773 32.3514 283.4 34.4847 283.4C35.8447 283.4 37.0447 283.28 38.0847 283.04C39.1514 282.773 40.2447 282.4 41.3647 281.92V285C40.2714 285.48 39.1914 285.827 38.1247 286.04C37.058 286.28 35.7914 286.4 34.3247 286.4C32.298 286.4 30.498 285.987 28.9247 285.16C27.378 284.333 26.1647 283.107 25.2847 281.48C24.4314 279.827 24.0047 277.813 24.0047 275.44C24.0047 273.093 24.3914 271.08 25.1647 269.4C25.9647 267.72 27.0714 266.427 28.4847 265.52C29.9247 264.613 31.5914 264.16 33.4847 264.16ZM33.4447 267.04C31.7647 267.04 30.4314 267.587 29.4447 268.68C28.4847 269.747 27.9114 271.24 27.7247 273.16H38.6447C38.6447 271.933 38.458 270.867 38.0847 269.96C37.7114 269.053 37.138 268.347 36.3647 267.84C35.618 267.307 34.6447 267.04 33.4447 267.04ZM54.9428 283.52C55.4761 283.52 56.0228 283.48 56.5828 283.4C57.1428 283.293 57.5961 283.187 57.9428 283.08V285.76C57.5695 285.947 57.0361 286.093 56.3428 286.2C55.6495 286.333 54.9828 286.4 54.3428 286.4C53.2228 286.4 52.1828 286.213 51.2228 285.84C50.2895 285.44 49.5295 284.76 48.9428 283.8C48.3561 282.84 48.0628 281.493 48.0628 279.76V267.28H45.0228V265.6L48.1028 264.2L49.5028 259.64H51.5828V264.56H57.7828V267.28H51.5828V279.68C51.5828 280.987 51.8895 281.96 52.5028 282.6C53.1428 283.213 53.9561 283.52 54.9428 283.52ZM66.0172 257.44L65.2172 267.76H63.0172L62.2172 257.44H66.0172ZM84.7506 280.08C84.7506 281.467 84.404 282.627 83.7106 283.56C83.0173 284.493 82.0306 285.2 80.7506 285.68C79.4706 286.16 77.9506 286.4 76.1906 286.4C74.6973 286.4 73.404 286.28 72.3106 286.04C71.244 285.8 70.2973 285.467 69.4706 285.04V281.84C70.324 282.267 71.3506 282.667 72.5506 283.04C73.7773 283.387 75.0173 283.56 76.2706 283.56C78.0573 283.56 79.3506 283.28 80.1506 282.72C80.9506 282.133 81.3506 281.36 81.3506 280.4C81.3506 279.867 81.204 279.387 80.9106 278.96C80.6173 278.533 80.084 278.107 79.3106 277.68C78.564 277.253 77.484 276.773 76.0706 276.24C74.684 275.707 73.4973 275.173 72.5106 274.64C71.524 274.107 70.764 273.467 70.2306 272.72C69.6973 271.973 69.4306 271.013 69.4306 269.84C69.4306 268.027 70.164 266.627 71.6306 265.64C73.124 264.653 75.0706 264.16 77.4706 264.16C78.7773 264.16 79.9906 264.293 81.1106 264.56C82.2573 264.8 83.324 265.147 84.3106 265.6L83.1106 268.4C82.524 268.133 81.8973 267.907 81.2306 267.72C80.5906 267.507 79.9373 267.347 79.2706 267.24C78.604 267.107 77.924 267.04 77.2306 267.04C75.7906 267.04 74.684 267.28 73.9106 267.76C73.164 268.213 72.7906 268.84 72.7906 269.64C72.7906 270.227 72.964 270.733 73.3106 271.16C73.6573 271.56 74.2306 271.96 75.0306 272.36C75.8573 272.733 76.9506 273.187 78.3106 273.72C79.6706 274.227 80.8306 274.747 81.7906 275.28C82.7506 275.813 83.484 276.467 83.9906 277.24C84.4973 277.987 84.7506 278.933 84.7506 280.08ZM108.442 264.2C111.055 264.2 112.989 264.773 114.242 265.92C115.495 267.067 116.122 268.893 116.122 271.4V286H113.562L112.882 282.96H112.722C112.109 283.733 111.469 284.387 110.802 284.92C110.162 285.427 109.415 285.8 108.562 286.04C107.735 286.28 106.722 286.4 105.522 286.4C104.242 286.4 103.082 286.173 102.042 285.72C101.029 285.267 100.229 284.573 99.6419 283.64C99.0552 282.68 98.7619 281.48 98.7619 280.04C98.7619 277.907 99.6019 276.267 101.282 275.12C102.962 273.947 105.549 273.307 109.042 273.2L112.682 273.08V271.8C112.682 270.013 112.295 268.773 111.522 268.08C110.749 267.387 109.655 267.04 108.242 267.04C107.122 267.04 106.055 267.213 105.042 267.56C104.029 267.88 103.082 268.253 102.202 268.68L101.122 266.04C102.055 265.533 103.162 265.107 104.442 264.76C105.722 264.387 107.055 264.2 108.442 264.2ZM109.482 275.64C106.815 275.747 104.962 276.173 103.922 276.92C102.909 277.667 102.402 278.72 102.402 280.08C102.402 281.28 102.762 282.16 103.482 282.72C104.229 283.28 105.175 283.56 106.322 283.56C108.135 283.56 109.642 283.067 110.842 282.08C112.042 281.067 112.642 279.52 112.642 277.44V275.52L109.482 275.64ZM126.264 286H122.744V255.6H126.264V286ZM136.576 286H133.056V255.6H136.576V286ZM162.039 264.16C163.879 264.16 165.453 264.56 166.759 265.36C168.093 266.16 169.106 267.293 169.799 268.76C170.519 270.2 170.879 271.893 170.879 273.84V275.96H156.199C156.253 278.387 156.866 280.24 158.039 281.52C159.239 282.773 160.906 283.4 163.039 283.4C164.399 283.4 165.599 283.28 166.639 283.04C167.706 282.773 168.799 282.4 169.919 281.92V285C168.826 285.48 167.746 285.827 166.679 286.04C165.613 286.28 164.346 286.4 162.879 286.4C160.853 286.4 159.053 285.987 157.479 285.16C155.933 284.333 154.719 283.107 153.839 281.48C152.986 279.827 152.559 277.813 152.559 275.44C152.559 273.093 152.946 271.08 153.719 269.4C154.519 267.72 155.626 266.427 157.039 265.52C158.479 264.613 160.146 264.16 162.039 264.16ZM161.999 267.04C160.319 267.04 158.986 267.587 157.999 268.68C157.039 269.747 156.466 271.24 156.279 273.16H167.199C167.199 271.933 167.013 270.867 166.639 269.96C166.266 269.053 165.693 268.347 164.919 267.84C164.173 267.307 163.199 267.04 161.999 267.04ZM186.658 264.16C189.218 264.16 191.151 264.787 192.458 266.04C193.764 267.267 194.418 269.267 194.418 272.04V286H190.938V272.28C190.938 270.547 190.551 269.253 189.778 268.4C189.004 267.547 187.791 267.12 186.138 267.12C183.764 267.12 182.124 267.787 181.218 269.12C180.311 270.453 179.858 272.373 179.858 274.88V286H176.338V264.56H179.178L179.698 267.48H179.898C180.378 266.733 180.964 266.12 181.658 265.64C182.378 265.133 183.164 264.76 184.018 264.52C184.871 264.28 185.751 264.16 186.658 264.16ZM208.224 283.52C208.757 283.52 209.304 283.48 209.864 283.4C210.424 283.293 210.877 283.187 211.224 283.08V285.76C210.851 285.947 210.317 286.093 209.624 286.2C208.931 286.333 208.264 286.4 207.624 286.4C206.504 286.4 205.464 286.213 204.504 285.84C203.571 285.44 202.811 284.76 202.224 283.8C201.637 282.84 201.344 281.493 201.344 279.76V267.28H198.304V265.6L201.384 264.2L202.784 259.64H204.864V264.56H211.064V267.28H204.864V279.68C204.864 280.987 205.171 281.96 205.784 282.6C206.424 283.213 207.237 283.52 208.224 283.52ZM223.797 264.16C225.637 264.16 227.211 264.56 228.517 265.36C229.851 266.16 230.864 267.293 231.557 268.76C232.277 270.2 232.637 271.893 232.637 273.84V275.96H217.957C218.011 278.387 218.624 280.24 219.797 281.52C220.997 282.773 222.664 283.4 224.797 283.4C226.157 283.4 227.357 283.28 228.397 283.04C229.464 282.773 230.557 282.4 231.677 281.92V285C230.584 285.48 229.504 285.827 228.437 286.04C227.371 286.28 226.104 286.4 224.637 286.4C222.611 286.4 220.811 285.987 219.237 285.16C217.691 284.333 216.477 283.107 215.597 281.48C214.744 279.827 214.317 277.813 214.317 275.44C214.317 273.093 214.704 271.08 215.477 269.4C216.277 267.72 217.384 266.427 218.797 265.52C220.237 264.613 221.904 264.16 223.797 264.16ZM223.757 267.04C222.077 267.04 220.744 267.587 219.757 268.68C218.797 269.747 218.224 271.24 218.037 273.16H228.957C228.957 271.933 228.771 270.867 228.397 269.96C228.024 269.053 227.451 268.347 226.677 267.84C225.931 267.307 224.957 267.04 223.757 267.04ZM248.095 264.16C248.495 264.16 248.922 264.187 249.375 264.24C249.855 264.267 250.269 264.32 250.615 264.4L250.175 267.64C249.829 267.56 249.442 267.493 249.015 267.44C248.615 267.387 248.229 267.36 247.855 267.36C247.029 267.36 246.242 267.533 245.495 267.88C244.749 268.227 244.082 268.72 243.495 269.36C242.909 269.973 242.442 270.72 242.095 271.6C241.775 272.48 241.615 273.467 241.615 274.56V286H238.095V264.56H240.975L241.375 268.48H241.535C241.989 267.68 242.535 266.96 243.175 266.32C243.815 265.653 244.549 265.133 245.375 264.76C246.202 264.36 247.109 264.16 248.095 264.16ZM272.169 283.52C272.703 283.52 273.249 283.48 273.809 283.4C274.369 283.293 274.823 283.187 275.169 283.08V285.76C274.796 285.947 274.263 286.093 273.569 286.2C272.876 286.333 272.209 286.4 271.569 286.4C270.449 286.4 269.409 286.213 268.449 285.84C267.516 285.44 266.756 284.76 266.169 283.8C265.583 282.84 265.289 281.493 265.289 279.76V267.28H262.249V265.6L265.329 264.2L266.729 259.64H268.809V264.56H275.009V267.28H268.809V279.68C268.809 280.987 269.116 281.96 269.729 282.6C270.369 283.213 271.183 283.52 272.169 283.52ZM282.983 264.52C282.983 265.027 282.956 265.547 282.903 266.08C282.876 266.613 282.836 267.093 282.783 267.52H283.023C283.476 266.773 284.049 266.16 284.743 265.68C285.436 265.2 286.209 264.84 287.063 264.6C287.916 264.333 288.796 264.2 289.703 264.2C291.436 264.2 292.876 264.48 294.023 265.04C295.196 265.573 296.076 266.413 296.663 267.56C297.249 268.707 297.543 270.2 297.543 272.04V286H294.063V272.28C294.063 270.547 293.676 269.253 292.903 268.4C292.129 267.547 290.916 267.12 289.263 267.12C287.663 267.12 286.409 267.427 285.503 268.04C284.596 268.627 283.943 269.507 283.543 270.68C283.169 271.827 282.983 273.24 282.983 274.92V286H279.463V255.6H282.983V264.52ZM312.469 264.16C314.309 264.16 315.882 264.56 317.189 265.36C318.522 266.16 319.536 267.293 320.229 268.76C320.949 270.2 321.309 271.893 321.309 273.84V275.96H306.629C306.682 278.387 307.296 280.24 308.469 281.52C309.669 282.773 311.336 283.4 313.469 283.4C314.829 283.4 316.029 283.28 317.069 283.04C318.136 282.773 319.229 282.4 320.349 281.92V285C319.256 285.48 318.176 285.827 317.109 286.04C316.042 286.28 314.776 286.4 313.309 286.4C311.282 286.4 309.482 285.987 307.909 285.16C306.362 284.333 305.149 283.107 304.269 281.48C303.416 279.827 302.989 277.813 302.989 275.44C302.989 273.093 303.376 271.08 304.149 269.4C304.949 267.72 306.056 266.427 307.469 265.52C308.909 264.613 310.576 264.16 312.469 264.16ZM312.429 267.04C310.749 267.04 309.416 267.587 308.429 268.68C307.469 269.747 306.896 271.24 306.709 273.16H317.629C317.629 271.933 317.442 270.867 317.069 269.96C316.696 269.053 316.122 268.347 315.349 267.84C314.602 267.307 313.629 267.04 312.429 267.04ZM340.678 286H337.158V255.6H340.678V286ZM355.75 264.16C357.59 264.16 359.164 264.56 360.47 265.36C361.804 266.16 362.817 267.293 363.51 268.76C364.23 270.2 364.59 271.893 364.59 273.84V275.96H349.91C349.964 278.387 350.577 280.24 351.75 281.52C352.95 282.773 354.617 283.4 356.75 283.4C358.11 283.4 359.31 283.28 360.35 283.04C361.417 282.773 362.51 282.4 363.63 281.92V285C362.537 285.48 361.457 285.827 360.39 286.04C359.324 286.28 358.057 286.4 356.59 286.4C354.564 286.4 352.764 285.987 351.19 285.16C349.644 284.333 348.43 283.107 347.55 281.48C346.697 279.827 346.27 277.813 346.27 275.44C346.27 273.093 346.657 271.08 347.43 269.4C348.23 267.72 349.337 266.427 350.75 265.52C352.19 264.613 353.857 264.16 355.75 264.16ZM355.71 267.04C354.03 267.04 352.697 267.587 351.71 268.68C350.75 269.747 350.177 271.24 349.99 273.16H360.91C360.91 271.933 360.724 270.867 360.35 269.96C359.977 269.053 359.404 268.347 358.63 267.84C357.884 267.307 356.91 267.04 355.71 267.04ZM377.648 264.16C379.062 264.16 380.328 264.427 381.448 264.96C382.595 265.493 383.568 266.307 384.368 267.4H384.568L385.048 264.56H387.848V286.36C387.848 288.387 387.502 290.08 386.808 291.44C386.115 292.827 385.062 293.867 383.648 294.56C382.235 295.253 380.435 295.6 378.248 295.6C376.702 295.6 375.275 295.48 373.968 295.24C372.688 295.027 371.542 294.693 370.528 294.24V291C371.222 291.347 371.982 291.64 372.808 291.88C373.635 292.147 374.528 292.347 375.488 292.48C376.448 292.613 377.435 292.68 378.448 292.68C380.288 292.68 381.728 292.133 382.768 291.04C383.835 289.973 384.368 288.507 384.368 286.64V285.8C384.368 285.48 384.382 285.027 384.408 284.44C384.435 283.827 384.462 283.4 384.488 283.16H384.328C383.582 284.253 382.648 285.067 381.528 285.6C380.435 286.133 379.155 286.4 377.688 286.4C374.915 286.4 372.742 285.427 371.168 283.48C369.622 281.533 368.848 278.813 368.848 275.32C368.848 273.027 369.195 271.053 369.888 269.4C370.608 267.72 371.622 266.427 372.928 265.52C374.235 264.613 375.808 264.16 377.648 264.16ZM378.128 267.12C376.928 267.12 375.902 267.44 375.048 268.08C374.222 268.72 373.582 269.653 373.128 270.88C372.702 272.107 372.488 273.6 372.488 275.36C372.488 278 372.968 280.027 373.928 281.44C374.915 282.827 376.342 283.52 378.208 283.52C379.302 283.52 380.235 283.387 381.008 283.12C381.782 282.827 382.422 282.387 382.928 281.8C383.435 281.187 383.808 280.413 384.048 279.48C384.288 278.547 384.408 277.44 384.408 276.16V275.32C384.408 273.373 384.182 271.8 383.728 270.6C383.302 269.4 382.622 268.52 381.688 267.96C380.755 267.4 379.568 267.12 378.128 267.12ZM402.938 264.16C404.778 264.16 406.351 264.56 407.658 265.36C408.991 266.16 410.004 267.293 410.698 268.76C411.418 270.2 411.778 271.893 411.778 273.84V275.96H397.098C397.151 278.387 397.764 280.24 398.938 281.52C400.138 282.773 401.804 283.4 403.938 283.4C405.298 283.4 406.498 283.28 407.538 283.04C408.604 282.773 409.698 282.4 410.818 281.92V285C409.724 285.48 408.644 285.827 407.578 286.04C406.511 286.28 405.244 286.4 403.778 286.4C401.751 286.4 399.951 285.987 398.378 285.16C396.831 284.333 395.618 283.107 394.738 281.48C393.884 279.827 393.458 277.813 393.458 275.44C393.458 273.093 393.844 271.08 394.618 269.4C395.418 267.72 396.524 266.427 397.938 265.52C399.378 264.613 401.044 264.16 402.938 264.16ZM402.898 267.04C401.218 267.04 399.884 267.587 398.898 268.68C397.938 269.747 397.364 271.24 397.178 273.16H408.098C408.098 271.933 407.911 270.867 407.538 269.96C407.164 269.053 406.591 268.347 405.818 267.84C405.071 267.307 404.098 267.04 402.898 267.04ZM427.556 264.16C430.116 264.16 432.049 264.787 433.356 266.04C434.663 267.267 435.316 269.267 435.316 272.04V286H431.836V272.28C431.836 270.547 431.449 269.253 430.676 268.4C429.903 267.547 428.689 267.12 427.036 267.12C424.663 267.12 423.023 267.787 422.116 269.12C421.209 270.453 420.756 272.373 420.756 274.88V286H417.236V264.56H420.076L420.596 267.48H420.796C421.276 266.733 421.863 266.12 422.556 265.64C423.276 265.133 424.063 264.76 424.916 264.52C425.769 264.28 426.649 264.16 427.556 264.16ZM449.563 286.4C446.896 286.4 444.763 285.48 443.163 283.64C441.563 281.773 440.763 279 440.763 275.32C440.763 271.64 441.563 268.867 443.163 267C444.789 265.107 446.936 264.16 449.603 264.16C450.723 264.16 451.696 264.307 452.523 264.6C453.349 264.867 454.069 265.24 454.683 265.72C455.296 266.2 455.816 266.733 456.243 267.32H456.483C456.456 266.973 456.403 266.467 456.323 265.8C456.269 265.107 456.243 264.56 456.243 264.16V255.6H459.763V286H456.923L456.403 283.12H456.243C455.816 283.733 455.296 284.293 454.683 284.8C454.069 285.28 453.336 285.667 452.483 285.96C451.656 286.253 450.683 286.4 449.563 286.4ZM450.123 283.48C452.389 283.48 453.976 282.867 454.883 281.64C455.816 280.387 456.283 278.507 456.283 276V275.36C456.283 272.693 455.843 270.653 454.963 269.24C454.083 267.8 452.456 267.08 450.083 267.08C448.189 267.08 446.763 267.84 445.803 269.36C444.869 270.853 444.403 272.867 444.403 275.4C444.403 277.96 444.869 279.947 445.803 281.36C446.763 282.773 448.203 283.48 450.123 283.48Z" fill="#909090"/>
<defs>
<clipPath id="clip0_32_593">
<rect width="160" height="160" fill="white" transform="translate(152)"/>
</clipPath>
</defs>
</svg>
