<?xml version="1.0" encoding="UTF-8" standalone="no" ?>
<!DOCTYPE svg PUBLIC "-//W3C//DTD SVG 1.1//EN" "http://www.w3.org/Graphics/SVG/1.1/DTD/svg11.dtd">
<svg xmlns="http://www.w3.org/2000/svg" xmlns:xlink="http://www.w3.org/1999/xlink" version="1.1" width="1000" height="1500" viewBox="0 0 1000 1500" xml:space="preserve">
<defs>
<linearGradient id="SVGID_52" gradientUnits="userSpaceOnUse" gradientTransform="matrix(1 0 0 1 0 0) matrix(1 0 0 1 -500 -750)"  x1="500" y1="1500" x2="500" y2="0">
<stop offset="0%" style="stop-color:#d1d1d1;"/>
<stop offset="100%" style="stop-color:#f1f1f1;"/>
</linearGradient>
</defs>
<rect transform="matrix(1 0 0 1 0 0) translate(500,750)" x="-500" y="-750" width="1000" height="1500" fill="url(#SVGID_52)"></rect>
<g transform="matrix(21.46 0 0 21.46 500.5 750.5)"  >
<g style=""   >
		<g transform="matrix(1 0 0 1 0 0)"  >
<line style="stroke: #131313; stroke-width: 2; stroke-dasharray: none; stroke-linecap: round; stroke-dashoffset: 0; stroke-linejoin: round; stroke-miterlimit: 4; fill: none; fill-rule: nonzero; opacity: 1;"  x1="-10" y1="-10" x2="10" y2="10" />
</g>
		<g transform="matrix(1 0 0 1 -3.3 -2.71)"  >
<path style="stroke: #131313; stroke-width: 2; stroke-dasharray: none; stroke-linecap: round; stroke-dashoffset: 0; stroke-linejoin: round; stroke-miterlimit: 4; fill: none; fill-rule: nonzero; opacity: 1;"  transform=" translate(-8.7, -9.29)" d="M 10.41 10.41 a 2 2 0 1 1 -2.83 -2.83" stroke-linecap="round" />
</g>
		<g transform="matrix(1 0 0 1 -2.25 5.25)"  >
<line style="stroke: #131313; stroke-width: 2; stroke-dasharray: none; stroke-linecap: round; stroke-dashoffset: 0; stroke-linejoin: round; stroke-miterlimit: 4; fill: none; fill-rule: nonzero; opacity: 1;"  x1="3.75" y1="-3.75" x2="-3.75" y2="3.75" />
</g>
		<g transform="matrix(1 0 0 1 7.5 1.5)"  >
<line style="stroke: #131313; stroke-width: 2; stroke-dasharray: none; stroke-linecap: round; stroke-dashoffset: 0; stroke-linejoin: round; stroke-miterlimit: 4; fill: none; fill-rule: nonzero; opacity: 1;"  x1="-1.5" y1="-1.5" x2="1.5" y2="1.5" />
</g>
		<g transform="matrix(1 0 0 1 -0.29 0.29)"  >
<path style="stroke: #131313; stroke-width: 2; stroke-dasharray: none; stroke-linecap: round; stroke-dashoffset: 0; stroke-linejoin: round; stroke-miterlimit: 4; fill: none; fill-rule: nonzero; opacity: 1;"  transform=" translate(-11.71, -12.29)" d="M 3.59 3.59 A 1.99 1.99 0 0 0 3 5 v 14 a 2 2 0 0 0 2 2 h 14 c 0.55 0 1.052 -0.22 1.41 -0.59" stroke-linecap="round" />
</g>
		<g transform="matrix(1 0 0 1 3 -3)"  >
<path style="stroke: #131313; stroke-width: 2; stroke-dasharray: none; stroke-linecap: round; stroke-dashoffset: 0; stroke-linejoin: round; stroke-miterlimit: 4; fill: none; fill-rule: nonzero; opacity: 1;"  transform=" translate(-15, -9)" d="M 21 15 V 5 a 2 2 0 0 0 -2 -2 H 9" stroke-linecap="round" />
</g>
</g>
</g>
</svg>
