<svg width="400" height="400" viewBox="0 0 400 400" fill="none" xmlns="http://www.w3.org/2000/svg">
<path fill-rule="evenodd" clip-rule="evenodd" d="M-0.299423 0H399.701V400H-0.299423V0ZM109.921 246.54V236.46H150.561V246.54H109.921ZM114.721 221.82V211.74H145.761V221.82H114.721ZM111.521 199.5V189.42H148.961V199.5H111.521ZM187.439 246.54V241.192C186.499 242.772 185.219 244.048 183.599 245.02C181.199 246.46 178.105 247.18 174.319 247.18C170.959 247.18 168.079 246.62 165.679 245.5C163.279 244.327 161.439 242.753 160.159 240.78C158.879 238.807 158.239 236.593 158.239 234.14C158.239 231.58 158.852 229.34 160.079 227.42C161.359 225.5 163.359 224.007 166.079 222.94C168.799 221.82 172.345 221.26 176.719 221.26H186.639C186.639 218.593 185.812 216.513 184.159 215.02C182.559 213.527 180.079 212.78 176.719 212.78C174.425 212.78 172.159 213.153 169.919 213.9C167.732 214.593 165.865 215.553 164.319 216.78L159.839 208.06C162.185 206.407 165.012 205.127 168.319 204.22C171.625 203.313 174.985 202.86 178.399 202.86C184.959 202.86 190.052 204.407 193.679 207.5C197.305 210.593 199.119 215.42 199.119 221.98V246.54H187.439ZM186.639 228.54V232.94C185.892 234.86 184.692 236.327 183.039 237.34C181.385 238.3 179.519 238.78 177.439 238.78C175.252 238.78 173.519 238.327 172.239 237.42C171.012 236.46 170.399 235.18 170.399 233.58C170.399 232.14 170.932 230.94 171.999 229.98C173.119 229.02 175.145 228.54 178.079 228.54H186.639ZM224.894 247.18C221.214 247.18 217.667 246.753 214.254 245.9C210.894 244.993 208.227 243.873 206.254 242.54L210.414 233.58C212.387 234.807 214.707 235.82 217.374 236.62C220.094 237.367 222.76 237.74 225.374 237.74C228.254 237.74 230.28 237.393 231.454 236.7C232.68 236.007 233.294 235.047 233.294 233.82C233.294 232.807 232.814 232.06 231.854 231.58C230.947 231.047 229.72 230.647 228.174 230.38C226.627 230.113 224.92 229.847 223.054 229.58C221.24 229.313 219.4 228.967 217.534 228.54C215.667 228.06 213.96 227.367 212.414 226.46C210.867 225.553 209.614 224.327 208.654 222.78C207.747 221.233 207.294 219.233 207.294 216.78C207.294 214.06 208.067 211.66 209.614 209.58C211.214 207.5 213.507 205.873 216.494 204.7C219.48 203.473 223.054 202.86 227.214 202.86C230.147 202.86 233.134 203.18 236.174 203.82C239.214 204.46 241.747 205.393 243.774 206.62L239.614 215.5C237.534 214.273 235.427 213.447 233.294 213.02C231.214 212.54 229.187 212.3 227.214 212.3C224.44 212.3 222.414 212.673 221.134 213.42C219.854 214.167 219.214 215.127 219.214 216.3C219.214 217.367 219.667 218.167 220.574 218.7C221.534 219.233 222.787 219.66 224.334 219.98C225.88 220.3 227.56 220.593 229.374 220.86C231.24 221.073 233.107 221.42 234.974 221.9C236.84 222.38 238.52 223.073 240.014 223.98C241.56 224.833 242.814 226.033 243.774 227.58C244.734 229.073 245.214 231.047 245.214 233.5C245.214 236.167 244.414 238.54 242.814 240.62C241.214 242.647 238.894 244.247 235.854 245.42C232.867 246.593 229.214 247.18 224.894 247.18ZM257.572 262.7C255.332 262.7 253.119 262.353 250.932 261.66C248.746 260.967 246.959 260.007 245.572 258.78L250.132 249.9C251.092 250.753 252.186 251.42 253.412 251.9C254.692 252.38 255.946 252.62 257.172 252.62C258.932 252.62 260.319 252.193 261.332 251.34C262.399 250.54 263.359 249.18 264.212 247.26L264.365 246.899L245.732 203.5H258.612L270.694 232.73L282.852 203.5H294.852L275.412 249.18C274.026 252.647 272.426 255.367 270.612 257.34C268.852 259.313 266.879 260.7 264.692 261.5C262.559 262.3 260.186 262.7 257.572 262.7ZM148.527 352C168.927 359.8 191.127 363.7 215.127 363.7C237.027 363.7 258.027 360.4 278.127 353.8C298.227 346.9 315.777 336.85 330.777 323.65V203.5H298.827V309.444C288.965 316.702 278.465 322.187 267.327 325.9C251.427 331.3 234.477 334 216.477 334C197.277 334 179.427 330.85 162.927 324.55C146.727 317.95 132.477 308.8 120.177 297.1C108.177 285.1 98.7272 271.15 91.8272 255.25C85.2272 239.35 81.9272 222.1 81.9272 203.5C81.9272 184.6 85.2272 167.35 91.8272 151.75C98.7272 135.85 108.177 122.05 120.177 110.35C132.477 98.3501 146.727 89.2001 162.927 82.9C179.427 76.3 197.427 73 216.927 73C235.227 73 252.327 75.85 268.227 81.55C284.127 87.25 298.677 96.7 311.877 109.9L332.577 88.7501C318.477 73.4501 301.377 62.05 281.277 54.55C261.477 47.05 239.577 43.3 215.577 43.3C191.577 43.3 169.377 47.35 148.977 55.4501C128.877 63.25 111.327 74.35 96.3272 88.7501C81.3272 103.15 69.6272 120.1 61.2272 139.6C53.1272 159.1 49.0772 180.4 49.0772 203.5C49.0772 226.6 53.1272 247.9 61.2272 267.4C69.6272 286.9 81.1772 303.85 95.8772 318.25C110.877 332.65 128.427 343.9 148.527 352Z" fill="white"/>
</svg>
