<svg width="488" height="296" viewBox="0 0 488 296" fill="none" xmlns="http://www.w3.org/2000/svg">
<g clip-path="url(#clip0_32_748)">
<path fill-rule="evenodd" clip-rule="evenodd" d="M163.88 0H323.88V160H163.88V0ZM207.768 98.5161V94.4841H224.024V98.5161H207.768ZM209.688 88.6281V84.5961H222.104V88.6281H209.688ZM208.408 79.7001V75.6681H223.384V79.7001H208.408ZM238.775 98.5161V96.3767C238.4 97.0087 237.888 97.5192 237.239 97.9081C236.279 98.4841 235.042 98.7721 233.527 98.7721C232.183 98.7721 231.031 98.5481 230.071 98.1001C229.111 97.6307 228.375 97.0014 227.863 96.2121C227.351 95.4227 227.095 94.5374 227.095 93.5561C227.095 92.5321 227.341 91.6361 227.831 90.8681C228.343 90.1001 229.143 89.5027 230.231 89.0761C231.319 88.6281 232.738 88.4041 234.487 88.4041H238.455C238.455 87.3374 238.125 86.5054 237.463 85.9081C236.823 85.3107 235.831 85.0121 234.487 85.0121C233.57 85.0121 232.663 85.1614 231.767 85.4601C230.893 85.7374 230.146 86.1214 229.527 86.6121L227.735 83.1241C228.674 82.4627 229.805 81.9507 231.127 81.5881C232.45 81.2254 233.794 81.0441 235.159 81.0441C237.783 81.0441 239.821 81.6627 241.271 82.9001C242.722 84.1374 243.447 86.0681 243.447 88.6921V98.5161H238.775ZM238.455 91.3161V93.0761C238.157 93.8441 237.677 94.4307 237.015 94.8361C236.354 95.2201 235.607 95.4121 234.775 95.4121C233.901 95.4121 233.207 95.2307 232.695 94.8681C232.205 94.4841 231.959 93.9721 231.959 93.3321C231.959 92.7561 232.173 92.2761 232.599 91.8921C233.047 91.5081 233.858 91.3161 235.031 91.3161H238.455ZM253.757 98.7721C252.285 98.7721 250.867 98.6014 249.501 98.2601C248.157 97.8974 247.091 97.4494 246.301 96.9161L247.965 93.3321C248.755 93.8227 249.683 94.2281 250.749 94.5481C251.837 94.8467 252.904 94.9961 253.949 94.9961C255.101 94.9961 255.912 94.8574 256.381 94.5801C256.872 94.3027 257.117 93.9187 257.117 93.4281C257.117 93.0227 256.925 92.7241 256.541 92.5321C256.179 92.3187 255.688 92.1587 255.069 92.0521C254.451 91.9454 253.768 91.8387 253.021 91.7321C252.296 91.6254 251.56 91.4867 250.813 91.3161C250.067 91.1241 249.384 90.8467 248.765 90.4841C248.147 90.1214 247.645 89.6307 247.261 89.0121C246.899 88.3934 246.717 87.5934 246.717 86.6121C246.717 85.5241 247.027 84.5641 247.645 83.7321C248.285 82.9001 249.203 82.2494 250.397 81.7801C251.592 81.2894 253.021 81.0441 254.685 81.0441C255.859 81.0441 257.053 81.1721 258.269 81.4281C259.485 81.6841 260.499 82.0574 261.309 82.5481L259.645 86.1001C258.813 85.6094 257.971 85.2787 257.117 85.1081C256.285 84.9161 255.475 84.8201 254.685 84.8201C253.576 84.8201 252.765 84.9694 252.253 85.2681C251.741 85.5667 251.485 85.9507 251.485 86.4201C251.485 86.8467 251.667 87.1667 252.029 87.3801C252.413 87.5934 252.915 87.7641 253.533 87.8921C254.152 88.0201 254.824 88.1374 255.549 88.2441C256.296 88.3294 257.043 88.4681 257.789 88.6601C258.536 88.8521 259.208 89.1294 259.805 89.4921C260.424 89.8334 260.925 90.3134 261.309 90.9321C261.693 91.5294 261.885 92.3187 261.885 93.3001C261.885 94.3667 261.565 95.3161 260.925 96.1481C260.285 96.9587 259.357 97.5987 258.141 98.0681C256.947 98.5374 255.485 98.7721 253.757 98.7721ZM266.829 104.98C265.933 104.98 265.048 104.841 264.173 104.564C263.298 104.287 262.584 103.903 262.029 103.412L263.853 99.8601C264.237 100.201 264.674 100.468 265.165 100.66C265.677 100.852 266.178 100.948 266.669 100.948C267.373 100.948 267.928 100.777 268.333 100.436C268.76 100.116 269.144 99.5721 269.485 98.8041L269.546 98.6598L262.093 81.3001H267.245L272.078 92.9921L276.941 81.3001H281.741L273.965 99.5721C273.41 100.959 272.77 102.047 272.045 102.836C271.341 103.625 270.552 104.18 269.677 104.5C268.824 104.82 267.874 104.98 266.829 104.98ZM223.411 141.4C231.571 144.52 240.451 146.08 250.051 146.08C258.811 146.08 267.211 144.76 275.251 142.12C283.291 139.36 290.311 135.34 296.311 130.06V82.0001H283.531V124.378C279.586 127.281 275.386 129.475 270.931 130.96C264.571 133.12 257.791 134.2 250.591 134.2C242.911 134.2 235.771 132.94 229.171 130.42C222.691 127.78 216.991 124.12 212.071 119.44C207.271 114.64 203.491 109.06 200.731 102.7C198.091 96.3401 196.771 89.4401 196.771 82.0001C196.771 74.4401 198.091 67.5401 200.731 61.3001C203.491 54.9401 207.271 49.4201 212.071 44.7401C216.991 39.9401 222.691 36.2801 229.171 33.7601C235.771 31.1201 242.971 29.8001 250.771 29.8001C258.091 29.8001 264.931 30.9401 271.291 33.2201C277.651 35.5001 283.471 39.2801 288.751 44.5601L297.031 36.1001C291.391 29.9801 284.551 25.4201 276.511 22.4201C268.591 19.4201 259.831 17.9201 250.231 17.9201C240.631 17.9201 231.751 19.5401 223.591 22.7801C215.551 25.9001 208.531 30.3401 202.531 36.1001C196.531 41.8601 191.851 48.6401 188.491 56.4401C185.251 64.2401 183.631 72.7601 183.631 82.0001C183.631 91.2401 185.251 99.7601 188.491 107.56C191.851 115.36 196.471 122.14 202.351 127.9C208.351 133.66 215.371 138.16 223.411 141.4Z" fill="white"/>
</g>
<path d="M5.11406 235V229.33H40.3941V235H5.11406ZM9.31406 211.69V206.02H36.1941V211.69H9.31406ZM6.51406 190.69V185.02H38.9941V190.69H6.51406ZM74.5557 235V226.88L74.3457 225.55V211.97C74.3457 208.843 73.459 206.44 71.6857 204.76C69.959 203.08 67.369 202.24 63.9157 202.24C61.5357 202.24 59.2724 202.637 57.1257 203.43C54.979 204.223 53.159 205.273 51.6657 206.58L49.4257 202.87C51.2924 201.283 53.5324 200.07 56.1457 199.23C58.759 198.343 61.5124 197.9 64.4057 197.9C69.1657 197.9 72.829 199.09 75.3957 201.47C78.009 203.803 79.3157 207.373 79.3157 212.18V235H74.5557ZM61.8857 235.35C59.1324 235.35 56.729 234.907 54.6757 234.02C52.669 233.087 51.129 231.827 50.0557 230.24C48.9824 228.607 48.4457 226.74 48.4457 224.64C48.4457 222.727 48.889 221 49.7757 219.46C50.709 217.873 52.2024 216.613 54.2557 215.68C56.3557 214.7 59.1557 214.21 62.6557 214.21H75.3257V217.92H62.7957C59.249 217.92 56.7757 218.55 55.3757 219.81C54.0224 221.07 53.3457 222.633 53.3457 224.5C53.3457 226.6 54.1624 228.28 55.7957 229.54C57.429 230.8 59.7157 231.43 62.6557 231.43C65.4557 231.43 67.859 230.8 69.8657 229.54C71.919 228.233 73.4124 226.367 74.3457 223.94L75.4657 227.37C74.5324 229.797 72.899 231.733 70.5657 233.18C68.279 234.627 65.3857 235.35 61.8857 235.35ZM102.685 235.35C99.6514 235.35 96.7814 234.93 94.0748 234.09C91.3681 233.203 89.2448 232.107 87.7048 230.8L89.9448 226.88C91.4381 228 93.3514 228.98 95.6848 229.82C98.0181 230.613 100.468 231.01 103.035 231.01C106.535 231.01 109.055 230.473 110.595 229.4C112.135 228.28 112.905 226.81 112.905 224.99C112.905 223.637 112.461 222.587 111.575 221.84C110.735 221.047 109.615 220.463 108.215 220.09C106.815 219.67 105.251 219.32 103.525 219.04C101.798 218.76 100.071 218.433 98.3448 218.06C96.6648 217.687 95.1248 217.15 93.7248 216.45C92.3248 215.703 91.1814 214.7 90.2948 213.44C89.4548 212.18 89.0348 210.5 89.0348 208.4C89.0348 206.393 89.5948 204.597 90.7148 203.01C91.8348 201.423 93.4681 200.187 95.6148 199.3C97.8081 198.367 100.468 197.9 103.595 197.9C105.975 197.9 108.355 198.227 110.735 198.88C113.115 199.487 115.075 200.303 116.615 201.33L114.445 205.32C112.811 204.2 111.061 203.407 109.195 202.94C107.328 202.427 105.461 202.17 103.595 202.17C100.281 202.17 97.8314 202.753 96.2448 203.92C94.7048 205.04 93.9348 206.487 93.9348 208.26C93.9348 209.66 94.3548 210.757 95.1948 211.55C96.0814 212.343 97.2248 212.973 98.6248 213.44C100.071 213.86 101.635 214.21 103.315 214.49C105.041 214.77 106.745 215.12 108.425 215.54C110.151 215.913 111.715 216.45 113.115 217.15C114.561 217.803 115.705 218.76 116.545 220.02C117.431 221.233 117.875 222.843 117.875 224.85C117.875 226.997 117.268 228.863 116.055 230.45C114.888 231.99 113.161 233.203 110.875 234.09C108.635 234.93 105.905 235.35 102.685 235.35ZM126.591 248.93C124.864 248.93 123.208 248.65 121.621 248.09C120.081 247.53 118.751 246.69 117.631 245.57L119.941 241.86C120.874 242.747 121.878 243.423 122.951 243.89C124.071 244.403 125.308 244.66 126.661 244.66C128.294 244.66 129.694 244.193 130.861 243.26C132.074 242.373 133.218 240.787 134.291 238.5L136.671 233.11L137.231 232.34L152.351 198.25H157.251L138.841 239.41C137.814 241.79 136.671 243.68 135.411 245.08C134.198 246.48 132.868 247.46 131.421 248.02C129.974 248.627 128.364 248.93 126.591 248.93ZM136.391 236.05L119.451 198.25H124.631L139.611 231.99L136.391 236.05ZM205.111 235.42C201.377 235.42 197.924 234.813 194.751 233.6C191.624 232.34 188.894 230.59 186.561 228.35C184.274 226.11 182.477 223.473 181.171 220.44C179.911 217.407 179.281 214.093 179.281 210.5C179.281 206.907 179.911 203.593 181.171 200.56C182.477 197.527 184.297 194.89 186.631 192.65C188.964 190.41 191.694 188.683 194.821 187.47C197.994 186.21 201.447 185.58 205.181 185.58C208.914 185.58 212.321 186.163 215.401 187.33C218.527 188.497 221.187 190.27 223.381 192.65L220.161 195.94C218.107 193.887 215.844 192.417 213.371 191.53C210.897 190.643 208.237 190.2 205.391 190.2C202.357 190.2 199.557 190.713 196.991 191.74C194.471 192.72 192.254 194.143 190.341 196.01C188.474 197.83 187.004 199.977 185.931 202.45C184.904 204.877 184.391 207.56 184.391 210.5C184.391 213.393 184.904 216.077 185.931 218.55C187.004 221.023 188.474 223.193 190.341 225.06C192.254 226.88 194.471 228.303 196.991 229.33C199.557 230.31 202.334 230.8 205.321 230.8C208.121 230.8 210.757 230.38 213.231 229.54C215.751 228.7 218.061 227.277 220.161 225.27L223.101 229.19C220.767 231.243 218.037 232.807 214.911 233.88C211.784 234.907 208.517 235.42 205.111 235.42ZM218.131 228.56V210.5H223.101V229.19L218.131 228.56ZM251.901 235.35C248.775 235.35 246.045 234.767 243.711 233.6C241.378 232.433 239.558 230.683 238.251 228.35C236.991 226.017 236.361 223.1 236.361 219.6V198.25H241.331V219.04C241.331 222.96 242.288 225.923 244.201 227.93C246.161 229.89 248.891 230.87 252.391 230.87C254.958 230.87 257.175 230.357 259.041 229.33C260.955 228.257 262.401 226.717 263.381 224.71C264.408 222.703 264.921 220.3 264.921 217.5V198.25H269.891V235H265.131V224.92L265.901 226.74C264.735 229.447 262.915 231.57 260.441 233.11C258.015 234.603 255.168 235.35 251.901 235.35ZM302.503 197.9C305.489 197.9 308.103 198.483 310.343 199.65C312.629 200.77 314.403 202.497 315.663 204.83C316.969 207.163 317.623 210.103 317.623 213.65V235H312.653V214.14C312.653 210.267 311.673 207.35 309.713 205.39C307.799 203.383 305.093 202.38 301.593 202.38C298.979 202.38 296.693 202.917 294.733 203.99C292.819 205.017 291.326 206.533 290.253 208.54C289.226 210.5 288.713 212.88 288.713 215.68V235H283.743V198.25H288.503V208.33L287.733 206.44C288.899 203.78 290.766 201.703 293.333 200.21C295.899 198.67 298.956 197.9 302.503 197.9ZM345.677 235.35C342.177 235.35 339.027 234.557 336.227 232.97C333.474 231.383 331.304 229.19 329.717 226.39C328.131 223.543 327.337 220.277 327.337 216.59C327.337 212.857 328.131 209.59 329.717 206.79C331.304 203.99 333.474 201.82 336.227 200.28C339.027 198.693 342.177 197.9 345.677 197.9C348.897 197.9 351.767 198.623 354.287 200.07C356.854 201.517 358.884 203.64 360.377 206.44C361.917 209.193 362.687 212.577 362.687 216.59C362.687 220.557 361.941 223.94 360.447 226.74C358.954 229.54 356.924 231.687 354.357 233.18C351.837 234.627 348.944 235.35 345.677 235.35ZM346.027 230.94C348.641 230.94 350.974 230.357 353.027 229.19C355.127 227.977 356.761 226.297 357.927 224.15C359.141 221.957 359.747 219.437 359.747 216.59C359.747 213.697 359.141 211.177 357.927 209.03C356.761 206.883 355.127 205.227 353.027 204.06C350.974 202.847 348.641 202.24 346.027 202.24C343.461 202.24 341.151 202.847 339.097 204.06C337.044 205.227 335.411 206.883 334.197 209.03C332.984 211.177 332.377 213.697 332.377 216.59C332.377 219.437 332.984 221.957 334.197 224.15C335.411 226.297 337.044 227.977 339.097 229.19C341.151 230.357 343.461 230.94 346.027 230.94ZM359.887 235V223.94L360.377 216.52L359.677 209.1V183.06H364.647V235H359.887ZM401.519 235V226.88L401.309 225.55V211.97C401.309 208.843 400.422 206.44 398.649 204.76C396.922 203.08 394.332 202.24 390.879 202.24C388.499 202.24 386.235 202.637 384.089 203.43C381.942 204.223 380.122 205.273 378.629 206.58L376.389 202.87C378.255 201.283 380.495 200.07 383.109 199.23C385.722 198.343 388.475 197.9 391.369 197.9C396.129 197.9 399.792 199.09 402.359 201.47C404.972 203.803 406.279 207.373 406.279 212.18V235H401.519ZM388.849 235.35C386.095 235.35 383.692 234.907 381.639 234.02C379.632 233.087 378.092 231.827 377.019 230.24C375.945 228.607 375.409 226.74 375.409 224.64C375.409 222.727 375.852 221 376.739 219.46C377.672 217.873 379.165 216.613 381.219 215.68C383.319 214.7 386.119 214.21 389.619 214.21H402.289V217.92H389.759C386.212 217.92 383.739 218.55 382.339 219.81C380.985 221.07 380.309 222.633 380.309 224.5C380.309 226.6 381.125 228.28 382.759 229.54C384.392 230.8 386.679 231.43 389.619 231.43C392.419 231.43 394.822 230.8 396.829 229.54C398.882 228.233 400.375 226.367 401.309 223.94L402.429 227.37C401.495 229.797 399.862 231.733 397.529 233.18C395.242 234.627 392.349 235.35 388.849 235.35ZM465.698 197.9C468.684 197.9 471.274 198.483 473.468 199.65C475.708 200.77 477.434 202.497 478.648 204.83C479.908 207.163 480.538 210.103 480.538 213.65V235H475.568V214.14C475.568 210.267 474.634 207.35 472.768 205.39C470.948 203.383 468.358 202.38 464.998 202.38C462.478 202.38 460.284 202.917 458.418 203.99C456.598 205.017 455.174 206.533 454.148 208.54C453.168 210.5 452.678 212.88 452.678 215.68V235H447.708V214.14C447.708 210.267 446.774 207.35 444.908 205.39C443.041 203.383 440.428 202.38 437.068 202.38C434.594 202.38 432.424 202.917 430.558 203.99C428.691 205.017 427.244 206.533 426.218 208.54C425.238 210.5 424.748 212.88 424.748 215.68V235H419.778V198.25H424.538V208.19L423.768 206.44C424.888 203.78 426.684 201.703 429.158 200.21C431.678 198.67 434.641 197.9 438.048 197.9C441.641 197.9 444.698 198.81 447.218 200.63C449.738 202.403 451.371 205.087 452.118 208.68L450.158 207.91C451.231 204.923 453.121 202.52 455.828 200.7C458.581 198.833 461.871 197.9 465.698 197.9Z" fill="white"/>
<path d="M16.7081 286V257.44H20.3081V282.8H32.7881V286H16.7081ZM45.4847 264.16C47.3247 264.16 48.898 264.56 50.2047 265.36C51.538 266.16 52.5514 267.293 53.2447 268.76C53.9647 270.2 54.3247 271.893 54.3247 273.84V275.96H39.6447C39.698 278.387 40.3114 280.24 41.4847 281.52C42.6847 282.773 44.3514 283.4 46.4847 283.4C47.8447 283.4 49.0447 283.28 50.0847 283.04C51.1514 282.773 52.2447 282.4 53.3647 281.92V285C52.2714 285.48 51.1914 285.827 50.1247 286.04C49.058 286.28 47.7914 286.4 46.3247 286.4C44.298 286.4 42.498 285.987 40.9247 285.16C39.378 284.333 38.1647 283.107 37.2847 281.48C36.4314 279.827 36.0047 277.813 36.0047 275.44C36.0047 273.093 36.3914 271.08 37.1647 269.4C37.9647 267.72 39.0714 266.427 40.4847 265.52C41.9247 264.613 43.5914 264.16 45.4847 264.16ZM45.4447 267.04C43.7647 267.04 42.4314 267.587 41.4447 268.68C40.4847 269.747 39.9114 271.24 39.7247 273.16H50.6447C50.6447 271.933 50.458 270.867 50.0847 269.96C49.7114 269.053 49.138 268.347 48.3647 267.84C47.618 267.307 46.6447 267.04 45.4447 267.04ZM66.9428 283.52C67.4761 283.52 68.0228 283.48 68.5828 283.4C69.1428 283.293 69.5961 283.187 69.9428 283.08V285.76C69.5695 285.947 69.0361 286.093 68.3428 286.2C67.6495 286.333 66.9828 286.4 66.3428 286.4C65.2228 286.4 64.1828 286.213 63.2228 285.84C62.2895 285.44 61.5295 284.76 60.9428 283.8C60.3561 282.84 60.0628 281.493 60.0628 279.76V267.28H57.0228V265.6L60.1028 264.2L61.5028 259.64H63.5828V264.56H69.7828V267.28H63.5828V279.68C63.5828 280.987 63.8895 281.96 64.5028 282.6C65.1428 283.213 65.9561 283.52 66.9428 283.52ZM78.0172 257.44L77.2172 267.76H75.0172L74.2172 257.44H78.0172ZM96.7506 280.08C96.7506 281.467 96.404 282.627 95.7106 283.56C95.0173 284.493 94.0306 285.2 92.7506 285.68C91.4706 286.16 89.9506 286.4 88.1906 286.4C86.6973 286.4 85.404 286.28 84.3106 286.04C83.244 285.8 82.2973 285.467 81.4706 285.04V281.84C82.324 282.267 83.3506 282.667 84.5506 283.04C85.7773 283.387 87.0173 283.56 88.2706 283.56C90.0573 283.56 91.3506 283.28 92.1506 282.72C92.9506 282.133 93.3506 281.36 93.3506 280.4C93.3506 279.867 93.204 279.387 92.9106 278.96C92.6173 278.533 92.084 278.107 91.3106 277.68C90.564 277.253 89.484 276.773 88.0706 276.24C86.684 275.707 85.4973 275.173 84.5106 274.64C83.524 274.107 82.764 273.467 82.2306 272.72C81.6973 271.973 81.4306 271.013 81.4306 269.84C81.4306 268.027 82.164 266.627 83.6306 265.64C85.124 264.653 87.0706 264.16 89.4706 264.16C90.7773 264.16 91.9906 264.293 93.1106 264.56C94.2573 264.8 95.324 265.147 96.3106 265.6L95.1106 268.4C94.524 268.133 93.8973 267.907 93.2306 267.72C92.5906 267.507 91.9373 267.347 91.2706 267.24C90.604 267.107 89.924 267.04 89.2306 267.04C87.7906 267.04 86.684 267.28 85.9106 267.76C85.164 268.213 84.7906 268.84 84.7906 269.64C84.7906 270.227 84.964 270.733 85.3106 271.16C85.6573 271.56 86.2306 271.96 87.0306 272.36C87.8573 272.733 88.9506 273.187 90.3106 273.72C91.6706 274.227 92.8306 274.747 93.7906 275.28C94.7506 275.813 95.484 276.467 95.9906 277.24C96.4973 277.987 96.7506 278.933 96.7506 280.08ZM120.442 264.2C123.055 264.2 124.989 264.773 126.242 265.92C127.495 267.067 128.122 268.893 128.122 271.4V286H125.562L124.882 282.96H124.722C124.109 283.733 123.469 284.387 122.802 284.92C122.162 285.427 121.415 285.8 120.562 286.04C119.735 286.28 118.722 286.4 117.522 286.4C116.242 286.4 115.082 286.173 114.042 285.72C113.029 285.267 112.229 284.573 111.642 283.64C111.055 282.68 110.762 281.48 110.762 280.04C110.762 277.907 111.602 276.267 113.282 275.12C114.962 273.947 117.549 273.307 121.042 273.2L124.682 273.08V271.8C124.682 270.013 124.295 268.773 123.522 268.08C122.749 267.387 121.655 267.04 120.242 267.04C119.122 267.04 118.055 267.213 117.042 267.56C116.029 267.88 115.082 268.253 114.202 268.68L113.122 266.04C114.055 265.533 115.162 265.107 116.442 264.76C117.722 264.387 119.055 264.2 120.442 264.2ZM121.482 275.64C118.815 275.747 116.962 276.173 115.922 276.92C114.909 277.667 114.402 278.72 114.402 280.08C114.402 281.28 114.762 282.16 115.482 282.72C116.229 283.28 117.175 283.56 118.322 283.56C120.135 283.56 121.642 283.067 122.842 282.08C124.042 281.067 124.642 279.52 124.642 277.44V275.52L121.482 275.64ZM138.264 286H134.744V255.6H138.264V286ZM148.576 286H145.056V255.6H148.576V286ZM174.039 264.16C175.879 264.16 177.453 264.56 178.759 265.36C180.093 266.16 181.106 267.293 181.799 268.76C182.519 270.2 182.879 271.893 182.879 273.84V275.96H168.199C168.253 278.387 168.866 280.24 170.039 281.52C171.239 282.773 172.906 283.4 175.039 283.4C176.399 283.4 177.599 283.28 178.639 283.04C179.706 282.773 180.799 282.4 181.919 281.92V285C180.826 285.48 179.746 285.827 178.679 286.04C177.613 286.28 176.346 286.4 174.879 286.4C172.853 286.4 171.053 285.987 169.479 285.16C167.933 284.333 166.719 283.107 165.839 281.48C164.986 279.827 164.559 277.813 164.559 275.44C164.559 273.093 164.946 271.08 165.719 269.4C166.519 267.72 167.626 266.427 169.039 265.52C170.479 264.613 172.146 264.16 174.039 264.16ZM173.999 267.04C172.319 267.04 170.986 267.587 169.999 268.68C169.039 269.747 168.466 271.24 168.279 273.16H179.199C179.199 271.933 179.013 270.867 178.639 269.96C178.266 269.053 177.693 268.347 176.919 267.84C176.173 267.307 175.199 267.04 173.999 267.04ZM198.658 264.16C201.218 264.16 203.151 264.787 204.458 266.04C205.764 267.267 206.418 269.267 206.418 272.04V286H202.938V272.28C202.938 270.547 202.551 269.253 201.778 268.4C201.004 267.547 199.791 267.12 198.138 267.12C195.764 267.12 194.124 267.787 193.218 269.12C192.311 270.453 191.858 272.373 191.858 274.88V286H188.338V264.56H191.178L191.698 267.48H191.898C192.378 266.733 192.964 266.12 193.658 265.64C194.378 265.133 195.164 264.76 196.018 264.52C196.871 264.28 197.751 264.16 198.658 264.16ZM220.224 283.52C220.757 283.52 221.304 283.48 221.864 283.4C222.424 283.293 222.877 283.187 223.224 283.08V285.76C222.851 285.947 222.317 286.093 221.624 286.2C220.931 286.333 220.264 286.4 219.624 286.4C218.504 286.4 217.464 286.213 216.504 285.84C215.571 285.44 214.811 284.76 214.224 283.8C213.637 282.84 213.344 281.493 213.344 279.76V267.28H210.304V265.6L213.384 264.2L214.784 259.64H216.864V264.56H223.064V267.28H216.864V279.68C216.864 280.987 217.171 281.96 217.784 282.6C218.424 283.213 219.237 283.52 220.224 283.52ZM235.797 264.16C237.637 264.16 239.211 264.56 240.517 265.36C241.851 266.16 242.864 267.293 243.557 268.76C244.277 270.2 244.637 271.893 244.637 273.84V275.96H229.957C230.011 278.387 230.624 280.24 231.797 281.52C232.997 282.773 234.664 283.4 236.797 283.4C238.157 283.4 239.357 283.28 240.397 283.04C241.464 282.773 242.557 282.4 243.677 281.92V285C242.584 285.48 241.504 285.827 240.437 286.04C239.371 286.28 238.104 286.4 236.637 286.4C234.611 286.4 232.811 285.987 231.237 285.16C229.691 284.333 228.477 283.107 227.597 281.48C226.744 279.827 226.317 277.813 226.317 275.44C226.317 273.093 226.704 271.08 227.477 269.4C228.277 267.72 229.384 266.427 230.797 265.52C232.237 264.613 233.904 264.16 235.797 264.16ZM235.757 267.04C234.077 267.04 232.744 267.587 231.757 268.68C230.797 269.747 230.224 271.24 230.037 273.16H240.957C240.957 271.933 240.771 270.867 240.397 269.96C240.024 269.053 239.451 268.347 238.677 267.84C237.931 267.307 236.957 267.04 235.757 267.04ZM260.095 264.16C260.495 264.16 260.922 264.187 261.375 264.24C261.855 264.267 262.269 264.32 262.615 264.4L262.175 267.64C261.829 267.56 261.442 267.493 261.015 267.44C260.615 267.387 260.229 267.36 259.855 267.36C259.029 267.36 258.242 267.533 257.495 267.88C256.749 268.227 256.082 268.72 255.495 269.36C254.909 269.973 254.442 270.72 254.095 271.6C253.775 272.48 253.615 273.467 253.615 274.56V286H250.095V264.56H252.975L253.375 268.48H253.535C253.989 267.68 254.535 266.96 255.175 266.32C255.815 265.653 256.549 265.133 257.375 264.76C258.202 264.36 259.109 264.16 260.095 264.16ZM284.169 283.52C284.703 283.52 285.249 283.48 285.809 283.4C286.369 283.293 286.823 283.187 287.169 283.08V285.76C286.796 285.947 286.263 286.093 285.569 286.2C284.876 286.333 284.209 286.4 283.569 286.4C282.449 286.4 281.409 286.213 280.449 285.84C279.516 285.44 278.756 284.76 278.169 283.8C277.583 282.84 277.289 281.493 277.289 279.76V267.28H274.249V265.6L277.329 264.2L278.729 259.64H280.809V264.56H287.009V267.28H280.809V279.68C280.809 280.987 281.116 281.96 281.729 282.6C282.369 283.213 283.183 283.52 284.169 283.52ZM294.983 264.52C294.983 265.027 294.956 265.547 294.903 266.08C294.876 266.613 294.836 267.093 294.783 267.52H295.023C295.476 266.773 296.049 266.16 296.743 265.68C297.436 265.2 298.209 264.84 299.063 264.6C299.916 264.333 300.796 264.2 301.703 264.2C303.436 264.2 304.876 264.48 306.023 265.04C307.196 265.573 308.076 266.413 308.663 267.56C309.249 268.707 309.543 270.2 309.543 272.04V286H306.063V272.28C306.063 270.547 305.676 269.253 304.903 268.4C304.129 267.547 302.916 267.12 301.263 267.12C299.663 267.12 298.409 267.427 297.503 268.04C296.596 268.627 295.943 269.507 295.543 270.68C295.169 271.827 294.983 273.24 294.983 274.92V286H291.463V255.6H294.983V264.52ZM324.469 264.16C326.309 264.16 327.882 264.56 329.189 265.36C330.522 266.16 331.536 267.293 332.229 268.76C332.949 270.2 333.309 271.893 333.309 273.84V275.96H318.629C318.682 278.387 319.296 280.24 320.469 281.52C321.669 282.773 323.336 283.4 325.469 283.4C326.829 283.4 328.029 283.28 329.069 283.04C330.136 282.773 331.229 282.4 332.349 281.92V285C331.256 285.48 330.176 285.827 329.109 286.04C328.042 286.28 326.776 286.4 325.309 286.4C323.282 286.4 321.482 285.987 319.909 285.16C318.362 284.333 317.149 283.107 316.269 281.48C315.416 279.827 314.989 277.813 314.989 275.44C314.989 273.093 315.376 271.08 316.149 269.4C316.949 267.72 318.056 266.427 319.469 265.52C320.909 264.613 322.576 264.16 324.469 264.16ZM324.429 267.04C322.749 267.04 321.416 267.587 320.429 268.68C319.469 269.747 318.896 271.24 318.709 273.16H329.629C329.629 271.933 329.442 270.867 329.069 269.96C328.696 269.053 328.122 268.347 327.349 267.84C326.602 267.307 325.629 267.04 324.429 267.04ZM352.678 286H349.158V255.6H352.678V286ZM367.75 264.16C369.59 264.16 371.164 264.56 372.47 265.36C373.804 266.16 374.817 267.293 375.51 268.76C376.23 270.2 376.59 271.893 376.59 273.84V275.96H361.91C361.964 278.387 362.577 280.24 363.75 281.52C364.95 282.773 366.617 283.4 368.75 283.4C370.11 283.4 371.31 283.28 372.35 283.04C373.417 282.773 374.51 282.4 375.63 281.92V285C374.537 285.48 373.457 285.827 372.39 286.04C371.324 286.28 370.057 286.4 368.59 286.4C366.564 286.4 364.764 285.987 363.19 285.16C361.644 284.333 360.43 283.107 359.55 281.48C358.697 279.827 358.27 277.813 358.27 275.44C358.27 273.093 358.657 271.08 359.43 269.4C360.23 267.72 361.337 266.427 362.75 265.52C364.19 264.613 365.857 264.16 367.75 264.16ZM367.71 267.04C366.03 267.04 364.697 267.587 363.71 268.68C362.75 269.747 362.177 271.24 361.99 273.16H372.91C372.91 271.933 372.724 270.867 372.35 269.96C371.977 269.053 371.404 268.347 370.63 267.84C369.884 267.307 368.91 267.04 367.71 267.04ZM389.648 264.16C391.062 264.16 392.328 264.427 393.448 264.96C394.595 265.493 395.568 266.307 396.368 267.4H396.568L397.048 264.56H399.848V286.36C399.848 288.387 399.502 290.08 398.808 291.44C398.115 292.827 397.062 293.867 395.648 294.56C394.235 295.253 392.435 295.6 390.248 295.6C388.702 295.6 387.275 295.48 385.968 295.24C384.688 295.027 383.542 294.693 382.528 294.24V291C383.222 291.347 383.982 291.64 384.808 291.88C385.635 292.147 386.528 292.347 387.488 292.48C388.448 292.613 389.435 292.68 390.448 292.68C392.288 292.68 393.728 292.133 394.768 291.04C395.835 289.973 396.368 288.507 396.368 286.64V285.8C396.368 285.48 396.382 285.027 396.408 284.44C396.435 283.827 396.462 283.4 396.488 283.16H396.328C395.582 284.253 394.648 285.067 393.528 285.6C392.435 286.133 391.155 286.4 389.688 286.4C386.915 286.4 384.742 285.427 383.168 283.48C381.622 281.533 380.848 278.813 380.848 275.32C380.848 273.027 381.195 271.053 381.888 269.4C382.608 267.72 383.622 266.427 384.928 265.52C386.235 264.613 387.808 264.16 389.648 264.16ZM390.128 267.12C388.928 267.12 387.902 267.44 387.048 268.08C386.222 268.72 385.582 269.653 385.128 270.88C384.702 272.107 384.488 273.6 384.488 275.36C384.488 278 384.968 280.027 385.928 281.44C386.915 282.827 388.342 283.52 390.208 283.52C391.302 283.52 392.235 283.387 393.008 283.12C393.782 282.827 394.422 282.387 394.928 281.8C395.435 281.187 395.808 280.413 396.048 279.48C396.288 278.547 396.408 277.44 396.408 276.16V275.32C396.408 273.373 396.182 271.8 395.728 270.6C395.302 269.4 394.622 268.52 393.688 267.96C392.755 267.4 391.568 267.12 390.128 267.12ZM414.938 264.16C416.778 264.16 418.351 264.56 419.658 265.36C420.991 266.16 422.004 267.293 422.698 268.76C423.418 270.2 423.778 271.893 423.778 273.84V275.96H409.098C409.151 278.387 409.764 280.24 410.938 281.52C412.138 282.773 413.804 283.4 415.938 283.4C417.298 283.4 418.498 283.28 419.538 283.04C420.604 282.773 421.698 282.4 422.818 281.92V285C421.724 285.48 420.644 285.827 419.578 286.04C418.511 286.28 417.244 286.4 415.778 286.4C413.751 286.4 411.951 285.987 410.378 285.16C408.831 284.333 407.618 283.107 406.738 281.48C405.884 279.827 405.458 277.813 405.458 275.44C405.458 273.093 405.844 271.08 406.618 269.4C407.418 267.72 408.524 266.427 409.938 265.52C411.378 264.613 413.044 264.16 414.938 264.16ZM414.898 267.04C413.218 267.04 411.884 267.587 410.898 268.68C409.938 269.747 409.364 271.24 409.178 273.16H420.098C420.098 271.933 419.911 270.867 419.538 269.96C419.164 269.053 418.591 268.347 417.818 267.84C417.071 267.307 416.098 267.04 414.898 267.04ZM439.556 264.16C442.116 264.16 444.049 264.787 445.356 266.04C446.663 267.267 447.316 269.267 447.316 272.04V286H443.836V272.28C443.836 270.547 443.449 269.253 442.676 268.4C441.903 267.547 440.689 267.12 439.036 267.12C436.663 267.12 435.023 267.787 434.116 269.12C433.209 270.453 432.756 272.373 432.756 274.88V286H429.236V264.56H432.076L432.596 267.48H432.796C433.276 266.733 433.863 266.12 434.556 265.64C435.276 265.133 436.063 264.76 436.916 264.52C437.769 264.28 438.649 264.16 439.556 264.16ZM461.563 286.4C458.896 286.4 456.763 285.48 455.163 283.64C453.563 281.773 452.763 279 452.763 275.32C452.763 271.64 453.563 268.867 455.163 267C456.789 265.107 458.936 264.16 461.603 264.16C462.723 264.16 463.696 264.307 464.523 264.6C465.349 264.867 466.069 265.24 466.683 265.72C467.296 266.2 467.816 266.733 468.243 267.32H468.483C468.456 266.973 468.403 266.467 468.323 265.8C468.269 265.107 468.243 264.56 468.243 264.16V255.6H471.763V286H468.923L468.403 283.12H468.243C467.816 283.733 467.296 284.293 466.683 284.8C466.069 285.28 465.336 285.667 464.483 285.96C463.656 286.253 462.683 286.4 461.563 286.4ZM462.123 283.48C464.389 283.48 465.976 282.867 466.883 281.64C467.816 280.387 468.283 278.507 468.283 276V275.36C468.283 272.693 467.843 270.653 466.963 269.24C466.083 267.8 464.456 267.08 462.083 267.08C460.189 267.08 458.763 267.84 457.803 269.36C456.869 270.853 456.403 272.867 456.403 275.4C456.403 277.96 456.869 279.947 457.803 281.36C458.763 282.773 460.203 283.48 462.123 283.48Z" fill="white"/>
<defs>
<clipPath id="clip0_32_748">
<rect width="160" height="160" fill="white" transform="translate(164)"/>
</clipPath>
</defs>
</svg>
